<svg width="32" height="32" viewBox="0 0 32 32" xmlns="http://www.w3.org/2000/svg">
  <defs>
    <linearGradient id="gradient" x1="0%" y1="0%" x2="100%" y2="100%">
      <stop offset="0%" style="stop-color:#1e3a8a;stop-opacity:1" />
      <stop offset="100%" style="stop-color:#f97316;stop-opacity:1" />
    </linearGradient>
  </defs>
  
  <!-- Background circle -->
  <circle cx="16" cy="16" r="15" fill="url(#gradient)" stroke="#ffffff" stroke-width="1"/>
  
  <!-- Wrench icon -->
  <path d="M12 8.5c0-1.1.9-2 2-2s2 .9 2 2-.9 2-2 2-2-.9-2-2zm-1.5 3.8c.8.8 1.9 1.2 3 1.2s2.2-.4 3-1.2l7.5 7.5c.6.6.6 1.5 0 2.1s-1.5.6-2.1 0L14.4 14.4c-.8.5-1.7.8-2.6.8-1.7 0-3.2-.7-4.2-1.8L5.5 11.3c-.3-.3-.3-.8 0-1.1l1.1-1.1c.3-.3.8-.3 1.1 0l2.1 2.1c.4-.2.8-.3 1.2-.3.6 0 1.2.2 1.7.6z" fill="#ffffff" stroke="none"/>
</svg>